<?xml version="1.0" encoding="UTF-8"?>
<!DOCTYPE svg PUBLIC "-//W3C//DTD SVG 1.1//EN" "http://www.w3.org/Graphics/SVG/1.1/DTD/svg11.dtd">
<svg xmlns="http://www.w3.org/2000/svg" version="1.1" width="471px" height="438px" style="shape-rendering:geometricPrecision; text-rendering:geometricPrecision; image-rendering:optimizeQuality; fill-rule:evenodd; clip-rule:evenodd" xmlns:xlink="http://www.w3.org/1999/xlink">
<g><path style="opacity:0.994" fill="#feb70a" d="M 141.5,-0.5 C 141.833,-0.5 142.167,-0.5 142.5,-0.5C 165.736,40.3027 189.236,80.9694 213,121.5C 231.396,154.915 224.563,181.915 192.5,202.5C 158.47,144.948 124.803,87.1147 91.5,29C 108.395,19.3924 125.061,9.55905 141.5,-0.5 Z"/></g>
<g><path style="opacity:0.996" fill="#20668c" d="M 327.5,-0.5 C 327.833,-0.5 328.167,-0.5 328.5,-0.5C 343.997,8.80322 359.664,17.9699 375.5,27C 377.211,28.1332 377.711,29.6332 377,31.5C 351.414,75.0029 326.081,118.67 301,162.5C 283.045,182.899 261.212,188.066 235.5,178C 233.167,176.833 230.833,175.667 228.5,174.5C 227.417,173.635 227.251,172.635 228,171.5C 261.431,114.303 294.598,56.9694 327.5,-0.5 Z"/></g>
<g><path style="opacity:0.988" fill="#00a1ab" d="M -0.5,189.5 C 53.2047,189.022 106.871,189.522 160.5,191C 179.307,196.474 191.474,208.64 197,227.5C 198.942,234.028 199.775,240.695 199.5,247.5C 132.833,247.5 66.1667,247.5 -0.5,247.5C -0.5,228.167 -0.5,208.833 -0.5,189.5 Z"/></g>
<g><path style="opacity:0.986" fill="#00a1ab" d="M 470.5,189.5 C 470.5,208.833 470.5,228.167 470.5,247.5C 416.462,247.979 362.462,247.479 308.5,246C 282.535,236.268 269.869,217.434 270.5,189.5C 337.167,189.5 403.833,189.5 470.5,189.5 Z"/></g>
<g><path style="opacity:0.994" fill="#feb70a" d="M 328.5,437.5 C 328.167,437.5 327.833,437.5 327.5,437.5C 303.345,395.861 279.178,354.194 255,312.5C 239.088,279.738 246.588,253.738 277.5,234.5C 311.219,292.104 344.553,349.938 377.5,408C 361.464,418.35 345.13,428.184 328.5,437.5 Z"/></g>
<g><path style="opacity:0.996" fill="#20668c" d="M 142.5,437.5 C 142.167,437.5 141.833,437.5 141.5,437.5C 124.743,427.929 108.076,418.095 91.5,408C 117.207,363.418 143.04,318.918 169,274.5C 184.575,256.202 204.075,250.369 227.5,257C 233.08,258.189 238.08,260.522 242.5,264C 209.029,321.779 175.695,379.612 142.5,437.5 Z"/></g>
</svg>
