<?xml version="1.0" encoding="UTF-8"?>
<!DOCTYPE svg PUBLIC "-//W3C//DTD SVG 1.1//EN" "http://www.w3.org/Graphics/SVG/1.1/DTD/svg11.dtd">
<svg xmlns="http://www.w3.org/2000/svg" version="1.1" width="2212px" height="445px" style="shape-rendering:geometricPrecision; text-rendering:geometricPrecision; image-rendering:optimizeQuality; fill-rule:evenodd; clip-rule:evenodd" xmlns:xlink="http://www.w3.org/1999/xlink">
<g><path style="opacity:0.991" fill="#717275" d="M 2165.5,-0.5 C 2177.17,-0.5 2188.83,-0.5 2200.5,-0.5C 2201.57,0.434475 2202.9,0.767809 2204.5,0.5C 2204.83,14.8488 2204.5,29.1821 2203.5,43.5C 2180.69,38.495 2160.02,42.995 2141.5,57C 2132.69,65.7731 2126.86,76.2731 2124,88.5C 2121.79,100.395 2120.62,112.395 2120.5,124.5C 2146.83,124.5 2173.17,124.5 2199.5,124.5C 2199.5,137.833 2199.5,151.167 2199.5,164.5C 2173.17,164.5 2146.83,164.5 2120.5,164.5C 2120.5,255.5 2120.5,346.5 2120.5,437.5C 2105.17,437.5 2089.83,437.5 2074.5,437.5C 2074.5,346.5 2074.5,255.5 2074.5,164.5C 2061.5,164.5 2048.5,164.5 2035.5,164.5C 2035.5,151.167 2035.5,137.833 2035.5,124.5C 2048.5,124.5 2061.5,124.5 2074.5,124.5C 2072,93.5011 2078.83,64.8345 2095,38.5C 2113.08,15.7114 2136.58,2.71138 2165.5,-0.5 Z"/></g>
<g><path style="opacity:0.995" fill="#fbb62d" d="M 141.5,4.5 C 165.559,44.9393 189.392,85.606 213,126.5C 231.396,159.915 224.563,186.915 192.5,207.5C 158.47,149.948 124.803,92.1147 91.5,34C 108.395,24.3924 125.061,14.559 141.5,4.5 Z"/></g>
<g><path style="opacity:0.997" fill="#406689" d="M 327.5,4.5 C 343.612,13.439 359.612,22.6057 375.5,32C 377.211,33.1332 377.711,34.6332 377,36.5C 353.081,77.3366 329.414,118.337 306,159.5C 289.199,186.434 265.699,194.267 235.5,183C 233.167,181.833 230.833,180.667 228.5,179.5C 227.417,178.635 227.251,177.635 228,176.5C 261.431,119.303 294.598,61.9694 327.5,4.5 Z"/></g>
<g><path style="opacity:0.991" fill="#717275" d="M 568.5,5.5 C 588.836,5.33338 609.169,5.50004 629.5,6C 647.384,9.89374 656.551,21.0604 657,39.5C 657.333,126.5 657.667,213.5 658,300.5C 665.372,355.538 696.538,387.038 751.5,395C 784.675,399.106 814.675,391.44 841.5,372C 864.277,351.274 876.444,325.44 878,294.5C 878.333,207.833 878.667,121.167 879,34.5C 880.931,18.569 889.765,9.06901 905.5,6C 925.831,5.50004 946.164,5.33338 966.5,5.5C 966.5,20.1667 966.5,34.8333 966.5,49.5C 955.162,49.3335 943.828,49.5001 932.5,50C 930.185,51.1094 928.685,52.9427 928,55.5C 927.667,137.5 927.333,219.5 927,301.5C 918.067,381.433 873.901,427.933 794.5,441C 756.452,446.047 720.118,440.38 685.5,424C 639.625,398.395 614.125,359.228 609,306.5C 608.984,222.137 608.317,137.803 607,53.5C 605.786,51.9512 604.286,50.7845 602.5,50C 591.172,49.5001 579.838,49.3335 568.5,49.5C 568.5,34.8333 568.5,20.1667 568.5,5.5 Z"/></g>
<g><path style="opacity:0.995" fill="#717275" d="M 999.5,5.5 C 1014.5,5.33342 1029.5,5.50008 1044.5,6C 1116.54,106.588 1188.71,207.088 1261,307.5C 1270.25,321.665 1279.25,335.998 1288,350.5C 1287.87,295.178 1287.7,239.844 1287.5,184.5C 1287.34,132.464 1287.84,80.4638 1289,28.5C 1292.17,17.3333 1299.33,10.1667 1310.5,7C 1332.11,5.54438 1353.78,5.04438 1375.5,5.5C 1375.5,20.1667 1375.5,34.8333 1375.5,49.5C 1364.16,49.3335 1352.83,49.5001 1341.5,50C 1339.33,50.8333 1337.83,52.3333 1337,54.5C 1336.5,181.5 1336.33,308.5 1336.5,435.5C 1321.83,435.667 1307.16,435.5 1292.5,435C 1217.97,332.098 1143.8,228.931 1070,125.5C 1062.08,113.335 1054.42,101.001 1047,88.5C 1047.85,100.432 1048.52,112.432 1049,124.5C 1049.17,170.167 1049.33,215.833 1049.5,261.5C 1049.64,310.52 1049.14,359.52 1048,408.5C 1044.67,425.161 1034.5,433.994 1017.5,435C 998.503,435.5 979.503,435.667 960.5,435.5C 960.5,420.833 960.5,406.167 960.5,391.5C 970.839,391.666 981.172,391.5 991.5,391C 994.911,390.883 997.411,389.383 999,386.5C 999.5,259.5 999.667,132.5 999.5,5.5 Z"/></g>
<g><path style="opacity:0.994" fill="#717275" d="M 1407.5,5.5 C 1474.5,5.33334 1541.5,5.5 1608.5,6C 1655.24,11.5895 1688.07,35.7562 1707,78.5C 1719.43,115.701 1718.09,152.368 1703,188.5C 1689.11,216.395 1667.27,234.895 1637.5,244C 1640.33,247.5 1643.17,251 1646,254.5C 1668,297.833 1690,341.167 1712,384.5C 1714.63,387.231 1717.79,389.064 1721.5,390C 1730.14,391.009 1738.81,391.509 1747.5,391.5C 1747.5,406.167 1747.5,420.833 1747.5,435.5C 1730.42,436.054 1713.42,435.22 1696.5,433C 1686.81,430.732 1678.97,425.565 1673,417.5C 1648.23,370.969 1624.23,323.969 1601,276.5C 1596.48,266.643 1588.98,260.476 1578.5,258C 1550.84,257.5 1523.17,257.333 1495.5,257.5C 1495.5,316.833 1495.5,376.167 1495.5,435.5C 1479.17,435.5 1462.83,435.5 1446.5,435.5C 1446.5,306.833 1446.5,178.167 1446.5,49.5C 1433.5,49.5 1420.5,49.5 1407.5,49.5C 1407.5,34.8333 1407.5,20.1667 1407.5,5.5 Z M 1495.5,49.5 C 1529.83,49.3333 1564.17,49.5 1598.5,50C 1632.11,54.2743 1653.27,72.7743 1662,105.5C 1667.7,130.959 1664.7,155.292 1653,178.5C 1640.25,198.209 1622.08,209.375 1598.5,212C 1564.17,212.5 1529.83,212.667 1495.5,212.5C 1495.5,158.167 1495.5,103.833 1495.5,49.5 Z"/></g>
<g><path style="opacity:0.991" fill="#717275" d="M 1884.5,444.5 C 1873.5,444.5 1862.5,444.5 1851.5,444.5C 1828.71,441.4 1808.37,432.566 1790.5,418C 1764.94,391.945 1756.78,361.112 1766,325.5C 1774.71,298.79 1791.88,279.623 1817.5,268C 1843.04,256.948 1869.71,250.282 1897.5,248C 1920.12,246.027 1942.79,245.194 1965.5,245.5C 1966.15,225.548 1962.32,206.548 1954,188.5C 1943.51,173.377 1929.01,164.877 1910.5,163C 1888.99,159.797 1867.99,161.797 1847.5,169C 1841.77,171.392 1837.27,175.226 1834,180.5C 1832.62,189.432 1832.12,198.432 1832.5,207.5C 1817.83,207.5 1803.17,207.5 1788.5,207.5C 1788.33,194.829 1788.5,182.162 1789,169.5C 1791.11,158.772 1796.61,150.272 1805.5,144C 1825.7,131.6 1847.7,124.6 1871.5,123C 1899.14,120 1926.14,123 1952.5,132C 1985.28,146.483 2004.12,171.65 2009,207.5C 2009.89,214.144 2010.55,220.811 2011,227.5C 2011.33,281.833 2011.67,336.167 2012,390.5C 2012.69,393.057 2014.19,394.891 2016.5,396C 2027.45,397.35 2038.45,397.85 2049.5,397.5C 2049.5,410.833 2049.5,424.167 2049.5,437.5C 2031.16,437.667 2012.83,437.5 1994.5,437C 1981.26,435.316 1972.76,428.149 1969,415.5C 1967.22,406.103 1966.55,396.77 1967,387.5C 1948.6,419.737 1921.1,438.737 1884.5,444.5 Z M 1918.5,283.5 C 1934.17,283.5 1949.83,283.5 1965.5,283.5C 1967.16,323.699 1953.83,357.866 1925.5,386C 1900.71,405.683 1873.38,410.016 1843.5,399C 1822.37,389.524 1811.03,373.19 1809.5,350C 1811.28,324.126 1824.28,306.46 1848.5,297C 1871.27,288.93 1894.61,284.43 1918.5,283.5 Z"/></g>
<g><path style="opacity:0.989" fill="#1da0a9" d="M -0.5,194.5 C 53.2047,194.022 106.871,194.522 160.5,196C 179.307,201.474 191.474,213.64 197,232.5C 198.942,239.028 199.775,245.695 199.5,252.5C 132.833,252.5 66.1667,252.5 -0.5,252.5C -0.5,233.167 -0.5,213.833 -0.5,194.5 Z"/></g>
<g><path style="opacity:0.988" fill="#1da0a9" d="M 270.5,194.5 C 337.167,194.5 403.833,194.5 470.5,194.5C 470.5,213.833 470.5,233.167 470.5,252.5C 416.462,252.979 362.462,252.479 308.5,251C 282.535,241.268 269.869,222.434 270.5,194.5 Z"/></g>
<g><path style="opacity:0.995" fill="#fbb62d" d="M 276.5,239.5 C 279.465,242.324 281.965,245.657 284,249.5C 315.3,303.935 346.467,358.435 377.5,413C 361.442,423.451 344.942,433.284 328,442.5C 300.641,397.12 274.308,351.12 249,304.5C 242.779,276.279 251.946,254.612 276.5,239.5 Z"/></g>
<g><path style="opacity:0.997" fill="#406689" d="M 201.5,259.5 C 213.606,258.555 225.272,260.388 236.5,265C 238.844,265.837 240.844,267.171 242.5,269C 209.126,326.915 175.626,384.748 142,442.5C 124.92,433.045 108.087,423.212 91.5,413C 117.207,368.418 143.04,323.918 169,279.5C 177.457,268.86 188.291,262.193 201.5,259.5 Z"/></g>
</svg>
